<svg _ngcontent-c10="" xml:space="preserve" xmlns:xlink="http://www.w3.org/1999/xlink" id="Layer_1" style="enable-background:new 0 0 100 100;" version="1.1" viewBox="0 0 100 100" width="100" x="0px" xmlns="http://www.w3.org/2000/svg" y="0px">
						<style _ngcontent-c10="" type="text/css">
							.st0 {
								fill: none;
								stroke: #000000;
								stroke-width: 2;
								stroke-miterlimit: 10;
							}

							.st1 {
								clip-path: url(#SVGID_2_);
								fill: #E21E2D;
							}
						</style>
						<g _ngcontent-c10="">
							<path _ngcontent-c10="" class="st0" d="M89.8,6.8H9.8c-1.8,0-3.2,1.5-3,3.3l6.4,80.1c0.1,1.6,1.5,2.8,3,2.8h67.4c1.6,0,2.9-1.2,3-2.8l6.4-80.1
		C93,8.3,91.6,6.8,89.8,6.8z"></path>
							<g _ngcontent-c10="">
								<defs _ngcontent-c10="">
									<path _ngcontent-c10="" d="M10.5,9.1C9.6,9.1,9,9.8,9,10.7l6.3,79.2c0,0.5,0.4,0.8,0.9,0.8h67.2c0.5,0,0.8-0.3,0.9-0.8l6.3-79.2
				c0.1-0.9-0.6-1.6-1.5-1.6H10.5z" id="SVGID_1_"></path>
								</defs>
								<clipPath _ngcontent-c10="" id="SVGID_2_">
									<use _ngcontent-c10="" xlink:href="#SVGID_1_" style="overflow:visible;"></use>
								</clipPath>
								<rect _ngcontent-c10="" class="st1" height="60.5" width="21.5" x="6.7" y="7.4"></rect>
								<rect _ngcontent-c10="" class="st1" height="60.5" width="21.5" x="71.3" y="7.4"></rect>
							</g>
							<path _ngcontent-c10="" d="M39.6,45.7c0,1.1,0.7,4,4.4,6.8c1.5,1.2,2.3,1.7,2.5,1.8l0,0c0.1,0.1-0.5,0.1-0.7,0.1c-0.3,0-1.3-0.1-2.1,0.1
		c-0.7,0.1-0.6,0.3-0.7,0.8c-0.1,0.4,0,1.1,0,1.6c0,0.6-0.1,0.9,0.2,1.2c0.2,0.3,0.4,0.3,1.4,0.2c0.9-0.1,3.5-0.1,3.8-0.1
		c0.4-0.1,0.3,0.1,0.1,0.6c-0.4,0.8-1.7,4.7-3.7,8.4c-0.3,0.5,0.5,0.3,1.2,0.6c1.2,0.6,1.2,0.7,1.5,0.1c0.3-0.7,2.1-4.8,2.4-6.1
		c0-0.2,0.1-0.3,0.1-0.1c0,0.2,0,5.4-0.1,7c0,0.1,0,0.2,0.1,0.2c0.1,0.1,0.2,0.1,0.3,0.2c0,0,0,0,0,0c0.6-0.2,1.3-0.3,2-0.2
		c0.1,0,0.1,0,0.2,0c0,0,0.1-0.1,0.1-0.1c0-0.1,0.1-0.2,0.1-0.3c0,0,0,0,0,0c0-0.1,0.1-0.3,0.1-0.4c0-0.1,0-0.2,0-0.3
		c0-0.1,0-0.2,0-0.3c0-0.1,0-0.3,0-0.4c0-0.2,0-0.3,0-0.5c0-0.2,0-0.3,0-0.5c0-0.2,0-0.1,0-0.3c0-0.2,0-0.4,0-0.6c0-0.2,0-0.4,0-0.6
		c0-0.2,0-0.4,0-0.6c0-0.2,0-0.4-0.1-0.7c0-0.2,0-0.5-0.1-0.7c0-0.2-0.1-0.5-0.1-0.7c0-0.2-0.1-0.5-0.1-0.7c0-0.2-0.1-0.4-0.1-0.7
		c0-0.2-0.1-0.3-0.1-0.5c0-0.2-0.1-0.4-0.1-0.6c0-0.2-0.1-0.4-0.2-0.6c0-0.2-0.1-0.3-0.1-0.5c0,0-0.1-0.2,0-0.3c0-0.1,0.1,0,0.2,0
		c0,0,0,0,0.1,0c0.7-0.1,1.8,0,2.1,0c0.3,0,1.6,0.1,1.9,0.2c0.4,0,0.8,0.1,0.8-1c0-0.3,0-0.5,0-0.8c0,0,0-0.1,0-0.1
		c0-0.1,0-0.1,0-0.2c0,0,0-0.1,0-0.1c0,0,0-0.1,0-0.1c0,0,0-0.1,0-0.1c0-0.1,0-0.1,0-0.2c0,0,0,0,0,0c0,0,0-0.1,0-0.1c0,0,0,0,0-0.1
		c0,0,0-0.1,0-0.1c0,0,0,0,0,0c0,0,0-0.1,0-0.1c0-0.3,0-0.8-0.5-0.9c-0.6-0.1-1.6-0.2-2.6-0.1c-0.1,0-0.2,0-0.1,0l0,0
		c0.2-0.1,1.6-0.9,3.1-2.3c1.7-1.5,2.5-2.3,3-3.4c0,0,1.9-3.6,1.8-6.7c0-0.6,0.1-0.6,0.5-0.6c0.1,0,0.6,0,0.8-0.2
		c0.8-0.2,1.5-2.9,1.5-2.9s1.2-4.1,1.5-5.8c0.3-1.5,0.2-2.4-0.7-2.8l-0.2-0.1c-0.1,0-0.1-0.1-0.1-0.2c0-0.1,0-0.1,0-0.2
		c0.4-1.5,1.2-3.5,1.1-4.3c0-0.2-0.2-0.3-0.3-0.3c-0.1-0.1-0.4-0.5-0.5-0.7c0,0,0-0.1,0-0.1c-0.3-2.9-1.3-6.6-4.4-9.8
		c0,0-0.2-0.2-0.3-0.3c-0.3-0.2-0.6-0.5-1-0.8c-0.8-0.6-1.5-1.1-2.8-1.8c-0.1-0.1-1.1-0.5-2.6-0.9c-0.1,0-0.3-0.1-0.4-0.1
		c-0.2-0.1-0.6-0.1-1-0.2c-0.9-0.1-2-0.2-3-0.2v0c-0.1,0-0.3,0-0.3,0c-0.1,0-0.1,0-0.2,0c-0.1,0-0.1,0-0.2,0c-0.2,0-0.5,0-0.8,0.1
		c-0.5,0.1-1,0.2-1.4,0.3c-0.4,0.1-0.9,0.2-1.5,0.4c-0.3,0.1-0.5,0.2-0.8,0.2c-0.1,0-0.1,0-0.2,0.1c-0.3,0.1-0.6,0.2-0.8,0.3
		c-0.2,0.1-1.1,0.5-1.3,0.5c-0.1,0-0.2,0.1-0.4,0.2c-0.6,0.2-0.7,0.6-0.8,0.7c0,0.1,0,0.3-0.1,0.4c-0.9,1.9-3,2.1-3.8,2.1
		c-0.2,0-0.4,0-0.3,0.3c0.2,0.5,1.2,1.6,1.8,1.7c0,0.1-0.5,0.2-0.6,0.2c-0.2,0.1-1.2,0-1.3,0c0,0,0,0,0,0c-1.1,0.1-1.5,0.9-1.6,1.2
		c0,0.1,0,0.2,0.1,0.3c0.2,0.4,0.5,0.7,0.7,1.2c0,0,0,0,0,0c0.1,0.1,0.1,0.3,0.1,0.4c0,0.2,0.2,0.4,0,0.9c-0.4,0.7-1.3,1-1.5,1.7
		c-0.2,1,0.2,1.7,0.6,3.5c0.3,1.2,0.6,2.4,0.8,3c0,0,0,0.1,0,0.1c-0.1,0-0.2,0-0.3,0.1c-0.6,0.2-0.7,0.7-0.8,1.5
		c-0.1,1.9,1.3,4.8,1.7,7.3c0.1,0.8,0.5,2.2,1.2,2.7c0.1,0.1,0.5,0.2,0.7,0.2c0.5,0.1,0.7-0.2,0.8,0.3c0,0.1,0,0.4,0,0.6
		C38.6,44,39.6,45.7,39.6,45.7 M40.4,15.7c0.1-0.2,0.4-0.4,0.6-0.6c0.3-0.2,1.7-1.2,2.9-1.6c0.2-0.1,0.3-0.1,0.4-0.1
		c0.2,0,0.4-0.5,0-0.5c-0.4-0.1-0.6,0-0.8,0c-0.2,0-0.3-0.1-0.2-0.3c0.2-0.2,0.5-0.4,1-0.6c1.1-0.5,3.1-0.7,4.1-0.8
		c1.2-0.1,1.4-0.1,2.2,0c0.7,0.1,1.3,0.2,1.6,0.2c1.4,0.3,3,0.9,4.5,1.7c0.8,0.4,1.5,1,2.2,1.5c2.1,1.6,4.4,4.7,4.1,11.1
		c0,0.8-0.1,1.2-0.2,1.4c-0.1,0.2-0.3,0.5-0.4,0.1c-0.4-1.4-1-3.8-2.2-5.7c-0.2-0.3-0.4-0.2-0.4,0c0,0.1,0.1,1.3,0,1.6
		c-0.2,1.6,0.3,1,1,2.7c0.2,0.5,0.5,1.6,0.6,2.2c0,0.2,0,0.4,0,0.6c0,0.2-0.1,0.3-0.1,0.3c-0.5,0-1.3-0.2-1.8-0.2
		c-0.5,0-4.2-0.1-5.5,0.1c-1.4,0.1-2.1,0.6-2.9,1.2C51,29.9,50.8,30,50.7,30c-0.1,0-0.1,0-0.2,0c-0.1,0-0.2,0-0.3-0.1
		c-0.3-0.1-0.7-0.1-1.1,0c-0.3,0.1-0.5,0.2-0.8,0c-0.5-0.3-1.3-1.5-3.9-1.5c-1.5,0-3.5,0-4.7,0c-0.4,0-0.6,0.1-0.7,0.1
		c0,0,0-0.1,0-0.1c0-2.1,1.4-1.7,1.5-2.2c0.4-1.4,0.5-4.7,2.9-6.8c1.2-1,1.8-1,2.8-1c1.2,0,2.3,0.3,2.9,0.6c0.5,0.2,0.7,0.4,0.9,0.2
		c0.2-0.1,0.7-0.6,0.9-0.7c0.2-0.2,0.1-0.4-0.1-0.5c-0.2-0.1-1.9-2.3-4.5-2.7c-0.6-0.1-1-0.2-1.6-0.2c-0.3,0-0.6,0-1.2,0.1
		c-1,0.1-2.3,0.7-3.2,1C40.2,16.1,40.4,15.8,40.4,15.7 M61.2,29.6c-0.1,0.1-0.2,0-0.4,0.1c-0.2,0-0.3,0.1-0.5,0.1
		c-0.3,0-0.4-0.3-0.2-0.5c0.2-0.3,0.5,0,0.7,0c0.1,0,0.2,0,0.3,0C61.2,29.4,61.2,29.5,61.2,29.6 M57.5,30.7c0,0-0.5-0.3-0.6-0.6
		c-0.1-0.1-0.1-0.2,0.1-0.2c0.7,0,1.4,0,1.7,0.2c0.2,0.2,0.2,0.6,0.1,0.9c-0.1,0.3-0.4,0.2-0.5,0.2C58.2,31.2,57.5,30.7,57.5,30.7
		M57.9,32c-0.1,0.1-0.6-0.1-0.8-0.2c-0.3-0.2-0.5-0.3-0.9-0.6c-0.3-0.2-0.7-0.3-1.2-0.3c-0.3,0-0.7,0.1-0.9,0.1
		c-0.3,0.1-0.3-0.2-0.2-0.3c0.1-0.1,0.4-0.4,1.2-0.6c0.1,0,0.3,0,0.4,0c0.3,0,0.7,0.3,1,0.5c0.3,0.3,0.8,0.8,1.1,0.9
		C57.9,31.7,58.2,31.8,57.9,32 M46.8,37.4c0.1,0.1,0.1,0.4,0.1,0.5c0,0.1-0.5,0.3-0.8-0.3c-0.4-0.5-0.2-1.2,0-1.5
		c0.3-0.4,0.9-0.1,0.8,0C46.6,36.7,46.7,37.2,46.8,37.4 M41.7,31.2c0.1-0.1,0.1-0.1,0.4-0.2c0.2-0.1,0.5-0.3,0.7-0.4
		c0.4-0.3,1.3-0.6,1.6-0.6c0.3,0,0.7,0.1,0.9,0.4c0.2,0.3,0.3,0.6,0,0.5c-0.3-0.1-0.7-0.1-1.3,0c-0.7,0.2-1.2,0.4-1.5,0.6
		c-0.3,0.2-0.7,0.2-0.8,0.2C41.7,31.7,41.3,31.5,41.7,31.2 M41.2,30.6c-0.3,0.2-0.7,0.5-0.9,0.6c-0.3,0.2-0.7,0-0.6-0.4
		c0.1-0.2,0.4-0.7,0.8-0.8c0.1,0,0.3-0.1,0.5-0.1c0.2,0,0.5,0,0.6-0.1c0.3,0,0.4,0.3,0.1,0.4C41.7,30.4,41.4,30.5,41.2,30.6
		M35.7,23.7c0.3-0.8,0.8-1.4,1.2-1.9c0.3-0.4,0.2-1,0-1.5c-0.1-0.5-0.4-1-0.5-1.1c0-0.1,0-0.2,0-0.2c0,0,0,0,0.1,0l0.6-0.1
		c1.8-0.2,3.4-0.9,3.9-1.1c0.2-0.1,0.5-0.2,0.7-0.3c0.3-0.1,0.6-0.2,0.9-0.2c0.2,0,0.5-0.1,0.8-0.1c0.4,0,0.9,0.2,0.8,0.3
		c-0.3,0.2-1.7,0.5-3,2c-0.8,0.9-0.9,1.5-1.2,1.9c-0.3,0.4-0.5,0.5-0.8,0.8c-0.2,0.2-0.5,0.5-0.7,1c-0.2,0.5-0.9,2.3-1,5.1
		c0,0.3-0.1,0.7-0.4,0.8c0,0,0,0,0,0c-0.3,0.1-0.5,0.3-0.5,0.1c-0.2-0.6-0.5-2-0.7-2.8c-0.1-0.3-0.1-0.5-0.2-0.8
		C35.6,24.7,35.6,24.1,35.7,23.7 M37.2,37.1c-0.5-0.3-0.5-0.8-0.6-1.2c-0.3-0.9-0.6-2.1-0.8-3c-0.2-0.6-0.2-2,0.6-2
		c0.4,0,0.7,0.1,0.8,0.5c0.3,0.8-0.3,0.7-0.1,1.7c0.1,0.7,0.2,1.4,0.5,2.6C37.6,36.2,37.8,37.5,37.2,37.1 M39.2,29.8
		c-0.2,0-0.3-0.1-0.5-0.1c-0.2,0-0.3,0-0.4-0.1c-0.1-0.1-0.1-0.2,0.1-0.3c0.1,0,0.2,0,0.3,0c0.2,0,0.5-0.3,0.7,0
		C39.6,29.5,39.5,29.8,39.2,29.8 M39.6,35.6c-0.1-0.3,0.1-0.8,0.8-0.3c0.1,0.1,0.5,0.2,0.8,0.3c0.2,0.1,0.4,0,0.4-0.2
		c0.1-0.2,0.3-0.5-0.1-0.7c-0.3-0.2-1.1-0.3-1.6-1.4c-0.1-0.2,0.1-0.4,0.2-0.5c0.1-0.1,0.3,0,0.4,0.1c0.1,0.1,0.5,0.4,0.8,0.5
		c0.3,0,0.3-0.1,0.4-0.2c0.2-0.2,0.9-1.2,2.2-1c0.5,0.1,1,0.2,1.2,0.2c0.1,0,0.5,0,0.8,0c0.4-0.1,1-0.2,0.7,0.1
		c-0.2,0.3-0.4,0.4-0.2,0.7c0,0,0,0,0,0c0.2,0.3,0.2,0.6,0,0.9l0,0c-0.3,0.4-0.9,0.8-2.1,0.9c-0.6,0-0.6,0-0.6,0.3
		c0,0.1,0,0.2,0,0.3c0,0.2,0.1,0.2,0.5,0.3c0.3,0,0.8,0,0.8,0c0.1,0,0.3,0,0.2,0.1c0,0-0.1,0.1-0.1,0.1c-0.3,0.4-0.4,0.7-0.4,0.9
		c0,0.2-0.1,0.3-0.3,0.4c0,0,0,0,0,0c-0.2,0.1-0.9,0.3-1.5,0.7c-0.6,0.5-1.8,0.9-2.3,0.3C40.2,37.9,39.8,36.6,39.6,35.6 M45,49.3
		c-1,0-3.7-1.6-4.9-6.2c-0.3-1.2,0.4-2.1,0.9-2.3c0.3-0.1,0.4-0.1,0.5-0.1c0.1,0,0.6,0,0.5,0.5c0,0.4,0.3,4,1.3,5.3
		c0.2,0.3,0.4,0.3,0.5,0c0.1-0.3,0.3-0.6,0.3-0.7c0-0.1,0.4-0.6,0.5-0.2c0.2,0.8,0.7,2.6,0.9,3C45.9,49.3,45.4,49.3,45,49.3
		M45.6,41.9c-1.3,0-2-0.5-2.1-0.7c-0.1-0.1,0.1-0.3,0.2-0.3c0.3-0.1,0.9-0.4,1.1-0.6c0.2-0.2,0.9-0.6,1.2-0.8
		c0.1-0.1,1-0.5,1.5-0.1c0.8,0.5,1.5,0.9,2.8,0.8c0.8-0.1,0.8-0.7,1.5-0.9c0.6-0.2,0.7-0.3,0.9-0.5c0.2,0,0.4-0.1,0.7,0.1
		c0.3,0.3,0.5,0.6,0.9,1c0.5,0.6,1.1,0.9,1.3,0.9c0.2,0,0.3,0.2,0.3,0.2c0,0.1-0.1,0.2-0.6,0.4c-1.8,0.5-3.8,0.2-4.8-0.2
		c-0.5-0.2-1-0.3-1.6,0C48.4,41.7,46.9,41.9,45.6,41.9 M52.4,43c-0.3,0.1-1.2,0.3-1.6,0.3c-0.4,0-1.8,0.1-2,0.1
		c-0.3,0-0.7-0.2-1-0.4c-0.1-0.1-0.1-0.3,0.1-0.3c0.5,0,1.3-0.3,4,0c0.3,0,0.4,0,0.5,0C52.4,42.8,52.7,42.9,52.4,43 M64.1,32.3
		c-0.4,1.9-0.8,2.9-1,4.1c-0.3,1.2-0.8,3-1.3,3.1c-0.5,0.2-0.7-0.4-1.1,0c-0.2,0.3-0.4,0.6-0.5,0.8C60.1,40.5,60,40.8,60,41
		c0,0.3,0,1.5-0.3,2.9c-0.5,2.2-1.3,3.8-2.2,4.9c-1.7,2-3.3,2.3-3.5,2.4c-0.2,0.1-0.6,0.1-0.7,0c-0.1-0.1-0.2-0.2-0.4-0.4
		c-0.2-0.2-0.3,0.1-0.3,0.2c0,0.1,0.1,1-0.1,1.4c-0.5,0.9-1,1-1.3,2.1c-0.1,0.4,0,1-0.5,0.7c-1.1-0.6-2.7-2.3-3-4
		c-0.1-0.5,0-1.1,0.3-2c0.2-0.6,0.3-1.2,0.3-1.6c0-0.6-0.3-1.2,0-1.2c0.5-0.1,0.7,1.1,0.9,1c0.4-0.2,0.1-1.5,0.1-1.5
		s-0.2-0.4-0.8-0.5c-0.4-0.1-0.5-0.4-0.1-0.6c0.3-0.1,0.7-0.3,1.1-0.3c2.7,0.4,3.5-0.2,4.6-0.5c0.2-0.1,0.3-0.1,0.5,0
		c0.2,0.1,0.6,0.3,0.7,0.6c0.1,0.2,0,1.1,0.1,1.8c0.1,0.7,0.6,0.1,0.7-0.2c0.1-0.3,0.2-0.9,0.3-1.1c0-0.2,0.2-0.9,0.4-1.1
		c0.5-0.4,0.7-1,0.8-1.2c0.1-0.2,0.2-0.9,0.2-1.8c0-1-0.2-1.1-0.4-1.3c-0.2-0.2-0.5-0.2-1.1-0.7c-0.5-0.5-1-1.3-1.3-1.7
		c-0.4-0.5-1-1-1.7-1.2c-0.7-0.2-0.4,0.5-0.4,0.7c0,0.1,0.2,0.7,0,0.9c-0.2,0.2-1.7,1.2-3,0.8c-1.5-0.4-2.1-1.3-2.1-2.1
		c0-0.6,0.3-1.1,0.6-1.8c0.2-0.4,0.3-1,0.4-1.7c0.1-0.5,0.2-1.2,0.3-1.5c0.1-0.2,0.3-0.4,0.7-0.4c0.4,0,0.7,0.2,0.8,0.6
		c0.3,1.2,0.7,1.5,0.8,1.6c0.1,0.1,0.4-0.1,0.5-0.2c0.1-0.1,0.4-0.4,0.3-0.5c-0.1-0.2-0.2-0.4-0.2-0.5c-0.1-0.2,0.2-0.2,0.3-0.2
		c0.5,0.4,0.9,0.4,1.8,0.6c1.5,0.2,1.7-0.3,2.7-0.1c0.1,0,0.4,0.1,0.5,0.3c0.1,0.1,0.2,0.4,0.3,0.5c0.1,0,0.4,0.1,0.6,0.1
		c0.2,0,0.6,0,0.5,0.4c-0.2,1-1.4,1.3-1.9,1.4c-0.2,0-0.3,0.1-0.4,0.1c-0.1,0.1-0.1,0.4,0,0.6c0.1,0.1,0.6,0.2,1.2,0
		c0.7-0.1,1.3-0.4,1.8-1.2c0.5-0.8,0.8-2.6,0.9-2.9c0.1-0.3,0.2-0.9,0.4-1c0.2-0.1,1-0.4,1.2-0.4c0.1,0,0.2,0.1,0.3,0.4
		c0.1,0.3-0.1,2.3-0.1,2.6c0,0.3,0.2,0.3,0.3,0.3c0.2-0.1,0.7-0.4,0.8-0.9c0.1-0.3-0.2-0.7,0-1.2c0.2-0.7,0.4-0.8,0.5-0.8
		C64.2,30.9,64.3,31.3,64.1,32.3 M75.7,72.8c0.2,0.1,0.4,0.3,0.3,0.6l-0.9,3.9c0,0.2-0.2,0.3-0.4,0.3h-1.2c-0.2,0-0.4-0.2-0.4-0.4
		c0,0,0-0.1,0-0.1c0.1-1.3-0.7-2.2-2.5-2.2c-3,0-5.2,2.4-5.4,5.7c-0.3,3.3,2,5.2,5.2,5.2c1.6,0,3-0.3,3.7-0.5
		c0.3-0.1,0.6,0.2,0.5,0.5l-0.4,2c0,0.2-0.2,0.3-0.3,0.4c-0.7,0.2-2.5,0.7-5.3,0.7c-6.7,0-9.4-3.9-9-7.8c0.4-3.5,2.7-8.7,11.9-8.7
		C73.2,72.2,74.6,72.5,75.7,72.8 M37.8,72.8c0-0.2,0.2-0.3,0.4-0.3h6.6c0.3,0,0.4,0.2,0.4,0.5l-0.2,1c0,0.2-0.2,0.3-0.4,0.3
		c0,0,0,0,0,0c-0.5,0.1-1.4,0.2-2.1,0.8L37,79.6c0,0,0,0,0,0l4.2,5.7c0.8,1.1,1.2,1.2,2,1.3c0.3,0,0.5,0.3,0.4,0.5l-0.2,1
		c0,0.2-0.2,0.3-0.4,0.3h-3.3c-3.6,0-4.6-1.6-7.7-7.1c0,0,0,0,0,0l-0.9,4c-0.1,0.6,0.4,1,0.8,1.1c0,0,0,0,0,0
		c0.2,0.1,0.3,0.3,0.2,0.5L32,88.1c0,0.2-0.2,0.3-0.4,0.3H24c-0.3,0-0.5-0.2-0.4-0.5l0.2-1c0-0.2,0.2-0.3,0.4-0.3c0,0,0,0,0,0
		c0.7-0.1,1.4-0.5,1.9-2.7l1.7-7.9c0.2-1.1-0.3-1.5-0.8-1.6c0,0,0,0-0.1,0c-0.2-0.1-0.3-0.3-0.3-0.5l0.2-1.1c0-0.2,0.2-0.3,0.4-0.3
		h7.3c0.3,0,0.4,0.2,0.4,0.5l-0.2,1c0,0.2-0.1,0.3-0.3,0.3c0,0,0,0-0.1,0c-0.3,0.1-0.9,0.4-1,1.1l-1,4.4c0,0,0,0,0,0l5.6-4.7
		c0.3-0.3,0.3-0.6-0.1-0.8c0,0,0,0,0,0c-0.2-0.1-0.4-0.3-0.3-0.5L37.8,72.8 M58.1,77.2c-0.2,0-0.4-0.2-0.4-0.4c0,0,0-0.1,0-0.1
		c0.1-1-0.3-1.6-1.4-1.6l-3.5,0l-0.9,4.2l5,0c0.3,0,0.4,0.2,0.4,0.5L56.8,82c0,0.2-0.2,0.3-0.4,0.3h-5.2c0,0-0.6,2.6-0.6,2.7
		c-0.2,0.8,0.4,1.3,0.8,1.5c0,0,0,0,0.1,0c0.2,0.1,0.3,0.3,0.2,0.4l-0.3,1.2c0,0.2-0.2,0.3-0.4,0.3H45c-0.3,0-0.4-0.2-0.4-0.5
		l2.6-12c0.3-1.1-0.3-1.5-0.8-1.7c0,0,0,0,0,0c-0.2-0.1-0.3-0.3-0.3-0.5l0.2-1.1c0-0.2,0.2-0.3,0.4-0.3h13.5c0.3,0,0.4,0.2,0.4,0.5
		l-0.9,3.9c0,0.2-0.2,0.3-0.4,0.3H58.1"></path>
						</g>
					</svg>